<?xml version="1.0" encoding="utf-8"?>
<!-- Generator: Adobe Illustrator 25.4.1, SVG Export Plug-In . SVG Version: 6.00 Build 0)  -->
<svg version="1.1" id="Layer_1" xmlns="http://www.w3.org/2000/svg" xmlns:xlink="http://www.w3.org/1999/xlink" x="0px" y="0px"
	 viewBox="0 0 32 32" style="enable-background:new 0 0 32 32;" xml:space="preserve">
<style type="text/css">
	.st0{fill:#828282;}
	.st1{fill:none;}
</style>
<path id="device--pairing_1_" class="st0" d="M31,29.4h-9c-0.2,0-0.4-0.2-0.4-0.4v-6.6H1v-0.7h20.6v-1.3H4c-0.8,0-1.4-0.6-1.4-1.4V4
	c0-0.7,0.6-1.4,1.4-1.4h22c0.8,0,1.4,0.6,1.4,1.4v8.6H31c0.2,0,0.4,0.2,0.4,0.4v16C31.4,29.2,31.2,29.4,31,29.4z M22.4,28.6h8.3
	v-2.3h-8.3V28.6z M22.4,25.6h8.3V13.4h-8.3V25.6z M4,3.4C3.6,3.4,3.4,3.6,3.4,4v15c0,0.4,0.3,0.6,0.6,0.6h17.6V13
	c0-0.2,0.2-0.4,0.4-0.4h4.6V4c0-0.4-0.3-0.6-0.6-0.6C26,3.4,4,3.4,4,3.4z"/>
<rect id="_Transparent_Rectangle" class="st1" width="32" height="32"/>
</svg>
