<?xml version="1.0" encoding="utf-8"?>
<!-- Generator: Adobe Illustrator 25.4.1, SVG Export Plug-In . SVG Version: 6.00 Build 0)  -->
<svg version="1.1" id="Layer_1" xmlns="http://www.w3.org/2000/svg" xmlns:xlink="http://www.w3.org/1999/xlink" x="0px" y="0px"
	 viewBox="0 0 512 512" style="enable-background:new 0 0 512 512;" xml:space="preserve">
<g>
	<g>
		<path d="M509,262.3L263.2,16.5c-4-4-10.4-4-14.4,0L3,262.3c-2.9,2.9-3.8,7.3-2.2,11.1c1.6,3.8,5.3,6.3,9.4,6.3h40.5v208.6
			c0,5.6,4.6,10.2,10.2,10.2H204c5.6,0,10.2-4.6,10.2-10.2V338.6h83.6v149.7c0,5.6,4.6,10.2,10.2,10.2h144.4
			c5.6,0,10.2-4.6,10.2-10.2V279.7h39.2c4.1,0,7.8-2.5,9.4-6.3C512.8,269.6,511.9,265.2,509,262.3z M452.4,259.3
			c-5.6,0-10.2,4.6-10.2,10.2v208.6h-124V328.4c0-5.6-4.6-10.2-10.2-10.2H204c-5.6,0-10.2,4.6-10.2,10.2v149.7H71.1V269.5
			c0-5.6-4.6-10.2-10.2-10.2H34.8L256,38.1l221.2,221.2H452.4z"/>
	</g>
</g>
<g>
</g>
</svg>
