<?xml version="1.0" encoding="utf-8"?>
<!-- Generator: Adobe Illustrator 25.4.1, SVG Export Plug-In . SVG Version: 6.00 Build 0)  -->
<svg version="1.1" id="Layer_1" xmlns="http://www.w3.org/2000/svg" xmlns:xlink="http://www.w3.org/1999/xlink" x="0px" y="0px"
	 viewBox="0 0 32 32" style="enable-background:new 0 0 32 32;" xml:space="preserve">
<style type="text/css">
	.st0{fill:#828282;}
	.st1{fill:none;}
</style>
<path id="home--front_1_" class="st0" d="M31,31.4H1v-0.7h1.6V19h0.7v11.6h9.3V19c0-0.2,0.2-0.4,0.4-0.4h6c0.2,0,0.4,0.2,0.4,0.4
	v11.6h9.3V19h0.7v11.6H31V31.4z M13.4,30.6h5.3V19.4h-5.3C13.4,19.4,13.4,30.6,13.4,30.6z M13,16.4v-0.7l6,0v0.7L13,16.4z
	 M30.7,16.3L16,1.5L1.3,16.3l-0.5-0.5l15-15c0.1-0.1,0.4-0.1,0.5,0l12.4,12.4V9h0.7v4.9l1.9,1.9L30.7,16.3z"/>
<rect id="_Transparent_Rectangle" class="st1" width="32" height="32"/>
</svg>
