<?xml version="1.0" encoding="utf-8"?>
<!-- Generator: Adobe Illustrator 25.4.1, SVG Export Plug-In . SVG Version: 6.00 Build 0)  -->
<svg version="1.1" id="Layer_1" xmlns="http://www.w3.org/2000/svg" xmlns:xlink="http://www.w3.org/1999/xlink" x="0px" y="0px"
	 viewBox="0 0 32 32" style="enable-background:new 0 0 32 32;" xml:space="preserve">
<style type="text/css">
	.st0{fill:#828282;}
	.st1{fill:none;}
</style>
<path id="pills_1_" class="st0" d="M4,31.4c-1.9,0-3.4-1.5-3.4-3.4s1.5-3.4,3.4-3.4s3.4,1.5,3.4,3.4S5.9,31.4,4,31.4z M4,25.4
	c-1.5,0-2.6,1.2-2.6,2.6s1.2,2.6,2.6,2.6s2.6-1.2,2.6-2.6S5.5,25.4,4,25.4z M28,30.2h-6c-1.3,0-2.4-1.1-2.4-2.4s1.1-2.4,2.4-2.4h6
	c1.3,0,2.4,1.1,2.4,2.4S29.3,30.2,28,30.2z M25.4,29.5H28c0.9,0,1.6-0.7,1.6-1.6s-0.7-1.6-1.6-1.6h-2.6V29.5z M22,26.2
	c-0.9,0-1.6,0.7-1.6,1.6s0.7,1.6,1.6,1.6h2.6v-3.3L22,26.2L22,26.2z M12.8,28.4c-0.6,0-1.2-0.2-1.7-0.7c-0.9-0.9-0.9-2.4,0-3.3
	l4.2-4.2c0.9-0.9,2.4-0.9,3.3,0c0.9,0.9,0.9,2.4,0,3.3l-4.2,4.2C14,28.1,13.4,28.4,12.8,28.4z M17,20.1c-0.4,0-0.8,0.2-1.2,0.5
	l-4.2,4.2c-0.3,0.3-0.5,0.7-0.5,1.2s0.2,0.9,0.5,1.2c0.6,0.6,1.7,0.6,2.3,0l4.2-4.2c0.6-0.6,0.6-1.7,0-2.3
	C17.8,20.3,17.4,20.1,17,20.1z M11.3,24.6L11.3,24.6L11.3,24.6z M6,21.4c-1.4,0-2.8-0.6-3.8-1.6l0,0c-1-1-1.6-2.4-1.6-3.8
	s0.6-2.8,1.6-3.8c2.1-2.1,5.5-2.1,7.6,0c1,1,1.6,2.4,1.6,3.8s-0.6,2.8-1.6,3.8C8.8,20.8,7.4,21.4,6,21.4z M1.4,16.4
	c0.1,1.1,0.6,2.1,1.3,2.9l0,0c0.9,0.9,2,1.4,3.3,1.4s2.4-0.5,3.3-1.4c0.8-0.8,1.3-1.8,1.3-2.9L1.4,16.4L1.4,16.4z M1.4,15.6h9.3
	c-0.1-1.1-0.6-2.1-1.3-2.9c-0.9-0.9-2-1.4-3.3-1.4s-2.4,0.5-3.3,1.4C1.9,13.5,1.5,14.5,1.4,15.6z M26,21.3c-1.4,0-2.8-0.6-3.8-1.6
	l-4.9-4.9c0,0,0,0,0,0c0,0,0,0,0,0l-4.9-4.9c-2.1-2.1-2.1-5.5,0-7.6c1-1,2.4-1.6,3.8-1.6s2.8,0.6,3.8,1.6l4.9,4.9c0,0,0,0,0,0
	c0,0,0,0,0,0l4.9,4.9c1,1,1.6,2.4,1.6,3.8s-0.6,2.8-1.6,3.8S27.4,21.3,26,21.3z M18,14.5l4.7,4.7c0.9,0.9,2,1.4,3.3,1.4
	s2.4-0.5,3.3-1.4c0.9-0.9,1.4-2,1.4-3.3s-0.5-2.4-1.4-3.3l-4.7-4.7L18,14.5z M16.1,1.4c-1.2,0-2.4,0.5-3.3,1.4
	c-0.9,0.9-1.4,2-1.4,3.3s0.5,2.4,1.4,3.3l4.7,4.7l6.6-6.6l-4.7-4.7C18.5,1.8,17.3,1.4,16.1,1.4z M4,7.4C2.1,7.4,0.6,5.9,0.6,4
	S2.1,0.6,4,0.6S7.4,2.1,7.4,4S5.9,7.4,4,7.4z M4,1.4C2.5,1.4,1.4,2.5,1.4,4S2.5,6.6,4,6.6S6.6,5.5,6.6,4S5.5,1.4,4,1.4z M28.5,6.4
	c-1.6,0-2.9-1.3-2.9-2.9s1.3-2.9,2.9-2.9s2.9,1.3,2.9,2.9S30.1,6.4,28.5,6.4z M28.5,1.4c-1.2,0-2.1,1-2.1,2.1s1,2.1,2.1,2.1
	s2.1-1,2.1-2.1S29.7,1.4,28.5,1.4z"/>
<rect id="_Transparent_Rectangle" class="st1" width="32" height="32"/>
</svg>
