<?xml version="1.0" encoding="utf-8"?>
<!-- Generator: Adobe Illustrator 25.4.1, SVG Export Plug-In . SVG Version: 6.00 Build 0)  -->
<svg version="1.1" id="Capa_1" xmlns="http://www.w3.org/2000/svg" xmlns:xlink="http://www.w3.org/1999/xlink" x="0px" y="0px"
	 viewBox="0 0 54 54" style="enable-background:new 0 0 54 54;" xml:space="preserve">
<style type="text/css">
	.st0{fill:#EDD1A2;}
	.st1{fill:#FAFAFA;}
	.st2{fill:#E8E7E7;}
	.st3{fill:#CEA875;}
</style>
<path class="st0" d="M39.1,54H16.9c-2.4,0-4.4-2-4.4-4.4V4.4c0-2.4,2-4.4,4.4-4.4h22.3c2.4,0,4.4,2,4.4,4.4v45.3
	C43.5,52,41.5,54,39.1,54z"/>
<rect x="15.5" y="7" class="st1" width="25" height="38"/>
<g>
	<path class="st2" d="M18.5,15c0.3,0,0.5-0.1,0.7-0.3l4-4c0.4-0.4,0.4-1,0-1.4s-1-0.4-1.4,0l-4,4c-0.4,0.4-0.4,1,0,1.4
		C18,14.9,18.2,15,18.5,15z"/>
	<path class="st2" d="M18.5,20c0.3,0,0.5-0.1,0.7-0.3l2-2c0.4-0.4,0.4-1,0-1.4s-1-0.4-1.4,0l-2,2c-0.4,0.4-0.4,1,0,1.4
		C18,19.9,18.2,20,18.5,20z"/>
	<path class="st2" d="M21.8,14.3c-0.2,0.2-0.3,0.4-0.3,0.7s0.1,0.5,0.3,0.7c0.2,0.2,0.4,0.3,0.7,0.3s0.5-0.1,0.7-0.3
		s0.3-0.4,0.3-0.7s-0.1-0.5-0.3-0.7C22.8,13.9,22.2,13.9,21.8,14.3z"/>
	<path class="st2" d="M23.8,13.7c0.2,0.2,0.5,0.3,0.7,0.3s0.5-0.1,0.7-0.3l3-3c0.4-0.4,0.4-1,0-1.4s-1-0.4-1.4,0l-3,3
		C23.4,12.7,23.4,13.3,23.8,13.7z"/>
	<path class="st2" d="M26.8,14.3l-9,9c-0.4,0.4-0.4,1,0,1.4c0.2,0.2,0.5,0.3,0.7,0.3s0.5-0.1,0.7-0.3l9-9c0.4-0.4,0.4-1,0-1.4
		S27.2,13.9,26.8,14.3z"/>
	<path class="st2" d="M28.8,12.3c-0.2,0.2-0.3,0.4-0.3,0.7s0.1,0.5,0.3,0.7c0.2,0.2,0.4,0.3,0.7,0.3s0.5-0.1,0.7-0.3
		s0.3-0.4,0.3-0.7s-0.1-0.5-0.3-0.7C29.8,11.9,29.2,11.9,28.8,12.3z"/>
	<path class="st2" d="M33.2,9.3c-0.4-0.4-1-0.4-1.4,0l-1,1c-0.4,0.4-0.4,1,0,1.4c0.2,0.2,0.5,0.3,0.7,0.3s0.5-0.1,0.7-0.3l1-1
		C33.6,10.3,33.6,9.7,33.2,9.3z"/>
</g>
<path class="st3" d="M31.5,5h-3c-0.6,0-1-0.4-1-1s0.4-1,1-1h3c0.6,0,1,0.4,1,1S32.1,5,31.5,5z"/>
<path class="st3" d="M24.5,5c-0.3,0-0.5-0.1-0.7-0.3c-0.2-0.2-0.3-0.4-0.3-0.7s0.1-0.5,0.3-0.7c0.4-0.4,1-0.4,1.4,0
	c0.2,0.2,0.3,0.5,0.3,0.7s-0.1,0.5-0.3,0.7C25,4.9,24.8,5,24.5,5z"/>
<circle class="st3" cx="28" cy="49.5" r="2.5"/>
</svg>
