<svg xmlns="http://www.w3.org/2000/svg" width="98" height="186" viewBox="0 0 98 186">
  <g id="time-caspule-start-svgrepo-com" transform="translate(-18 -4.211)">
    <path id="Path_144" data-name="Path 144" d="M20,7c0,48.714,26.932,88.205,42.469,88.205S104.938,55.714,104.938,7Z" transform="translate(4.534 6.801)" fill="#fff" fill-rule="evenodd"/>
    <path id="Path_145" data-name="Path 145" d="M20,30.205C20-18.509,46.932-58,62.469-58s42.469,39.491,42.469,88.205Z" transform="translate(4.534 150.205)" fill="#fff" fill-rule="evenodd"/>
    <path id="Path_146" data-name="Path 146" d="M0,68.6C0,30.715,22.788,0,35.935,0S71.871,30.715,71.871,68.6Z" transform="translate(102.938 82.405) rotate(180)" fill="#ffdd95" fill-rule="evenodd"/>
    <rect id="Rectangle_3" data-name="Rectangle 3" width="98" height="10" rx="3" transform="translate(18 4.211)" fill="#ffaf40"/>
    <rect id="Rectangle_4" data-name="Rectangle 4" width="98" height="10" rx="3" transform="translate(18 180.211)" fill="#ffaf40"/>
    <path id="Path_147" data-name="Path 147" d="M33,34v5.393m0,18.792v5.393" transform="translate(34.003 68.006)" fill="none" stroke="#ffdd95" stroke-linecap="round" stroke-width="2" fill-rule="evenodd"/>
    <path id="Path_148" data-name="Path 148" d="M33,39.393m0,18.792v5.393" transform="translate(34 91.006)" fill="none" stroke="#ffdd95" stroke-linecap="round" stroke-width="2" fill-rule="evenodd"/>
  </g>
</svg>
