<?xml version="1.0" encoding="utf-8"?>
<!-- Generator: Adobe Illustrator 25.4.1, SVG Export Plug-In . SVG Version: 6.00 Build 0)  -->
<svg version="1.1" id="Layer_1" xmlns="http://www.w3.org/2000/svg" xmlns:xlink="http://www.w3.org/1999/xlink" x="0px" y="0px"
	 viewBox="0 0 32 32" style="enable-background:new 0 0 32 32;" xml:space="preserve">
<style type="text/css">
	.st0{fill:#828282;}
	.st1{fill:none;}
</style>
<path id="expand--horz_1_" class="st0" d="M31,1.4c-0.2,0-0.4-0.2-0.4-0.4s0.2-0.4,0.4-0.4s0.4,0.2,0.4,0.4v0
	C31.4,1.2,31.2,1.4,31,1.4z M31.4,29L31.4,29c0-0.2-0.2-0.4-0.4-0.4s-0.4,0.2-0.4,0.4s0.2,0.4,0.4,0.4S31.4,29.2,31.4,29z M31.4,27
	L31.4,27c0-0.2-0.2-0.4-0.4-0.4s-0.4,0.2-0.4,0.4s0.2,0.4,0.4,0.4S31.4,27.2,31.4,27z M31.4,25L31.4,25c0-0.2-0.2-0.4-0.4-0.4
	s-0.4,0.2-0.4,0.4s0.2,0.4,0.4,0.4S31.4,25.2,31.4,25z M31.4,23L31.4,23c0-0.2-0.2-0.4-0.4-0.4s-0.4,0.2-0.4,0.4s0.2,0.4,0.4,0.4
	S31.4,23.2,31.4,23z M31.4,21L31.4,21c0-0.2-0.2-0.4-0.4-0.4s-0.4,0.2-0.4,0.4s0.2,0.4,0.4,0.4S31.4,21.2,31.4,21z M31.4,19L31.4,19
	c0-0.2-0.2-0.4-0.4-0.4s-0.4,0.2-0.4,0.4s0.2,0.4,0.4,0.4S31.4,19.2,31.4,19z M31.4,17L31.4,17c0-0.2-0.2-0.4-0.4-0.4
	s-0.4,0.2-0.4,0.4c0,0.2,0.2,0.4,0.4,0.4S31.4,17.2,31.4,17z M31.4,15L31.4,15c0-0.2-0.2-0.4-0.4-0.4s-0.4,0.2-0.4,0.4
	s0.2,0.4,0.4,0.4S31.4,15.2,31.4,15z M31.4,13L31.4,13c0-0.2-0.2-0.4-0.4-0.4s-0.4,0.2-0.4,0.4s0.2,0.4,0.4,0.4S31.4,13.2,31.4,13z
	 M31.4,11L31.4,11c0-0.2-0.2-0.4-0.4-0.4s-0.4,0.2-0.4,0.4s0.2,0.4,0.4,0.4S31.4,11.2,31.4,11z M31.4,9L31.4,9
	c0-0.2-0.2-0.4-0.4-0.4S30.6,8.8,30.6,9s0.2,0.4,0.4,0.4S31.4,9.2,31.4,9z M31.4,7L31.4,7c0-0.2-0.2-0.4-0.4-0.4S30.6,6.8,30.6,7
	s0.2,0.4,0.4,0.4S31.4,7.2,31.4,7z M31.4,5L31.4,5c0-0.2-0.2-0.4-0.4-0.4S30.6,4.8,30.6,5s0.2,0.4,0.4,0.4S31.4,5.2,31.4,5z M31.4,3
	L31.4,3c0-0.2-0.2-0.4-0.4-0.4S30.6,2.8,30.6,3s0.2,0.4,0.4,0.4S31.4,3.2,31.4,3z M31.4,31L31.4,31c0-0.2-0.2-0.4-0.4-0.4
	s-0.4,0.2-0.4,0.4s0.2,0.4,0.4,0.4S31.4,31.2,31.4,31z M1.4,1H0.6v30h0.7V1z M28.5,16l-3.3-3.3l-0.5,0.5l2.4,2.4H4v0.7h23.1
	l-2.4,2.4l0.5,0.5L28.5,16z"/>
<rect id="_Transparent_Rectangle" class="st1" width="32" height="32"/>
</svg>
