<svg xmlns="http://www.w3.org/2000/svg" width="207.407" height="207.406" viewBox="0 0 207.407 207.406">
  <g id="Group_53" data-name="Group 53" transform="translate(-1152.591 -1390.486)">
    <path id="XMLID_1300_" d="M447.265,337.7l-55,55-55,55.005a45,45,0,0,1-63.64,0l-7.4-7.4a45,45,0,0,1,0-63.64l55-55,55-55a45,45,0,0,1,63.64,0l7.4,7.4A45,45,0,0,1,447.265,337.7Z" transform="translate(899.553 1137)" fill="#f2a447"/>
    <path id="XMLID_1411_" d="M392.261,392.708l-55,55a45,45,0,0,1-63.64,0l-7.4-7.4a45,45,0,0,1,0-63.64l55-55Z" transform="translate(899.553 1137)" fill="#f2922a"/>
    <path id="XMLID_1299_" d="M385.19,320.848l-32.4,32.388.007.007L320.4,385.638a10,10,0,0,1-14.142,0l-1.644-1.644a10,10,0,0,1,0-14.142l13.8-13.8-.011-.011L369.4,305.063a10,10,0,0,1,14.142,0l1.644,1.644A10,10,0,0,1,385.19,320.848Z" transform="translate(899.553 1137)" fill="#f7cc8f"/>
    <path id="XMLID_1376_" d="M337.009,337.457,369.4,305.063a10,10,0,0,1,14.142,0l1.644,1.644a10,10,0,0,1,0,14.142L352.8,353.243Z" transform="translate(899.553 1137)" fill="#f4d6ab"/>
    <path id="XMLID_1295_" d="M298.366,393.531a10,10,0,0,1,0,14.142l-1.644,1.644a10,10,0,0,1-14.142,0l-1.644-1.644a10,10,0,0,1,0-14.142l1.644-1.644a10,10,0,0,1,14.142,0Z" transform="translate(899.553 1137)" fill="#f7cc8f"/>
  </g>
</svg>
