<?xml version="1.0" encoding="utf-8"?>
<!-- Generator: Adobe Illustrator 25.4.1, SVG Export Plug-In . SVG Version: 6.00 Build 0)  -->
<svg version="1.1" id="Layer_1" xmlns="http://www.w3.org/2000/svg" xmlns:xlink="http://www.w3.org/1999/xlink" x="0px" y="0px"
	 viewBox="0 0 207.4 207.4" style="enable-background:new 0 0 207.4 207.4;" xml:space="preserve">
<style type="text/css">
	.st0{fill:#B3CEAF;}
	.st1{fill:#899987;}
	.st2{fill:#CFDBCC;}
</style>
<g id="Group_53" transform="translate(-1152.591 -1390.486)">
	<path id="XMLID_1300_" class="st0" d="M1346.8,1474.7l-55,55l-55,55c-17.6,17.6-46.1,17.6-63.6,0c0,0,0,0,0,0l-7.4-7.4
		c-17.6-17.6-17.6-46.1,0-63.6c0,0,0,0,0,0l55-55l55-55c17.6-17.6,46.1-17.6,63.6,0c0,0,0,0,0,0l7.4,7.4
		c17.9,17.3,18.8,45.3,1.5,63.1C1348,1474.5,1347.7,1474.9,1346.8,1474.7z"/>
	<path id="XMLID_1411_" class="st1" d="M1291.8,1529.7l-55,55c-17.6,17.6-46.1,17.6-63.6,0c0,0,0,0,0,0l-7.4-7.4
		c-17.6-17.6-17.6-46.1,0-63.6c0,0,0,0,0,0l55-55L1291.8,1529.7z"/>
	<path id="XMLID_1299_" class="st2" d="M1284.7,1457.8l-32.4,32.4l0,0l-32.4,32.4c-3.9,3.9-10.2,3.9-14.1,0l-1.6-1.6
		c-3.9-3.9-3.9-10.2,0-14.1l13.8-13.8l0,0l51-51c3.9-3.9,10.2-3.9,14.1,0l1.6,1.6C1288.6,1447.6,1288.6,1453.9,1284.7,1457.8z"/>
	<path id="XMLID_1376_" class="st2" d="M1236.6,1474.5l32.4-32.4c3.9-3.9,10.2-3.9,14.1,0l1.6,1.6c3.9,3.9,3.9,10.2,0,14.1
		l-32.4,32.4L1236.6,1474.5z"/>
	<path id="XMLID_1295_" class="st2" d="M1197.9,1530.5c3.9,3.9,3.9,10.2,0,14.1l-1.6,1.6c-3.9,3.9-10.2,3.9-14.1,0l-1.6-1.6
		c-3.9-3.9-3.9-10.2,0-14.1l1.6-1.6c3.9-3.9,10.2-3.9,14.1,0L1197.9,1530.5z"/>
</g>
</svg>
