<?xml version="1.0" encoding="utf-8"?>
<!-- Generator: Adobe Illustrator 25.4.1, SVG Export Plug-In . SVG Version: 6.00 Build 0)  -->
<svg version="1.1" id="Layer_1" xmlns="http://www.w3.org/2000/svg" xmlns:xlink="http://www.w3.org/1999/xlink" x="0px" y="0px"
	 viewBox="0 0 32 32" style="enable-background:new 0 0 32 32;" xml:space="preserve">
<style type="text/css">
	.st0{fill:#828282;}
	.st1{fill:none;}
</style>
<path id="user_1_" class="st0" d="M31.4,31h-0.7c0-6.4-4.8-12.2-11.4-13.8c-0.1,0-0.3-0.2-0.3-0.3c0-0.2,0.1-0.3,0.2-0.4
	c2.9-1.3,4.7-4.1,4.7-7.2c0-4.4-3.6-7.9-7.9-7.9c-4.4,0-7.9,3.6-7.9,7.9c0,3.1,1.8,6,4.7,7.2c0.1,0.1,0.2,0.2,0.2,0.4
	c0,0.2-0.1,0.3-0.3,0.3C6.1,18.8,1.4,24.6,1.4,31H0.6c0-6.5,4.6-12.3,11-14.2C9,15.2,7.4,12.4,7.4,9.3c0-4.8,3.9-8.6,8.6-8.6
	c4.8,0,8.6,3.9,8.6,8.6c0,3.1-1.7,5.9-4.3,7.5C26.8,18.7,31.4,24.5,31.4,31z"/>
<rect id="_Transparent_Rectangle" class="st1" width="32" height="32"/>
</svg>
