<?xml version="1.0" encoding="utf-8"?>
<!-- Generator: Adobe Illustrator 25.4.1, SVG Export Plug-In . SVG Version: 6.00 Build 0)  -->
<svg version="1.1" id="Layer_1" xmlns="http://www.w3.org/2000/svg" xmlns:xlink="http://www.w3.org/1999/xlink" x="0px" y="0px"
	 viewBox="0 0 512 512" style="enable-background:new 0 0 512 512;" xml:space="preserve">
<style type="text/css">
	.st0{fill:#282828;}
	.st1{fill:#BD7155;}
	.st2{fill:#DFB296;}
	.st3{fill:#ECCE93;}
	.st4{fill:#AB5034;}
	.st5{fill:#CE9276;}
	.st6{opacity:0.3;fill:#AB5034;enable-background:new    ;}
	.st7{fill:#E1B872;}
	.st8{fill:#474641;}
	.st9{fill:#303030;}
	.st10{fill:#232323;}
	.st11{fill:#D5A150;}
</style>
<path class="st0" d="M256,285l-85.9,93.2L256,486.1c42.6,0.3,85.3-16.1,117.4-49.2l27.2-28c29.4-30.3,45.8-70.8,45.8-113V285H256z"
	/>
<path class="st0" d="M65.5,285v9.5c0,43,17.1,84.3,47.5,114.7l29.4,29.4c31.4,31.4,72.5,47.2,113.6,47.5V285H65.5z"/>
<path class="st1" d="M374.4,455.3c-4.8-17.8-13.5-33.9-25.1-47.5c-6.4-7.5-13.8-14.3-21.8-20c-20.1-14.5-44.8-23-71.5-23l-49.1,77.6
	L256,512c25.5,0,50.1-3.4,73.6-9.7l10.3-38L374.4,455.3L374.4,455.3z"/>
<path class="st2" d="M184.5,387.7c-8.1,5.8-15.4,12.5-21.8,20c-11.6,13.6-20.3,29.8-25.1,47.5l0,0l0,0l35,8.9l9.8,38
	c1.3,0.4,2.6,0.7,3.9,1l0,0c22.3,5.7,45.6,8.7,69.7,8.7v-147C229.3,364.8,204.7,373.3,184.5,387.7z"/>
<path class="st3" d="M182.4,473.6L164,454.2l-18.4,5.1v30.2c8,3.4,16.2,6.4,24.5,9.1c3.6,1.1,7.2,2.2,10.8,3.2
	c0.5,0.1,1,0.3,1.4,0.4L182.4,473.6L182.4,473.6z"/>
<path class="st3" d="M329.8,473.6c0,0-0.2,5.1-0.2,7.7v21c0.5-0.1,1-0.3,1.4-0.4c3.6-1,7.3-2.1,10.8-3.2c8.4-2.7,16.5-5.7,24.5-9.1
	v-2.1v-28.1l-18.4-5.1L329.8,473.6z"/>
<path class="st4" d="M366.4,459.3c2.7-1.3,5.3-2.6,8-4c-4.8-17.8-13.5-33.9-25.1-47.5c-3.4,5.9-6.4,12-9,18.4
	c-6,14.8-9.6,30.7-10.5,47.4c9.4-2.8,18.6-6.2,27.6-10.1C360.5,462.1,363.5,460.8,366.4,459.3z"/>
<path class="st5" d="M182.2,473.6c-1.2-23.9-8.2-46.3-19.4-65.8c-11.6,13.6-20.3,29.8-25.1,47.5c2.6,1.4,5.3,2.7,8,4
	C157.4,465,169.6,469.8,182.2,473.6z"/>
<g>
	<path class="st6" d="M287.4,437.2c-4.1-0.1-8,0.4-11.8,1.4c-12.9,3.4-26.3,3.4-39.2,0c-3.8-1-7.7-1.5-11.8-1.4
		c-23.2,0.4-42.2,20.6-42.2,43.8v0.3v21c23.5,6.3,48.1,9.7,73.6,9.7s50.1-3.4,73.6-9.7v-21V481C329.6,457.7,310.6,437.5,287.4,437.2
		z"/>
	<path class="st6" d="M374.4,455.3L374.4,455.3L374.4,455.3z"/>
	<path class="st4" d="M320.4,384.2L301,364.8h-45l-38,61.3l38,73.6l49.4-49.4c5.9-5.9,5.9-15.4,0-21.2l-4.4-4.4l19.4-19.4
		C326.2,399.5,326.2,390,320.4,384.2z"/>
</g>
<path class="st1" d="M211,364.8l-19.4,19.4c-5.9,5.9-5.9,15.4,0,21.2l19.4,19.4l-4.4,4.4c-5.9,5.9-5.9,15.4,0,21.2l49.4,49.4v-135
	H211L211,364.8L211,364.8z"/>
<polygon class="st3" points="289.7,396.4 256,430.1 222.3,396.4 "/>
<path class="st7" d="M368.4,120C368.3,120,368.3,120,368.4,120c-23.9-15.6-58.8-20.3-91.1-12.2c-3.4,0.9-11.2,2.9-16.2,4.2
	l-16.2-4.2h-0.1c-24.7-6.2-51.1-1.7-72.4,12.2c-21,13.7-35.8,36-40.4,61.2c-5.1,27.5-17.7,91.3-25.8,132.5
	c8.1,14.4,18.1,27.5,29.8,38.9c9.1,8.9,19.1,16.7,29.9,23.4c26.2,16.2,57.1,25.6,90.2,25.6c77.8,0,143.6-51.8,164.7-122.8l0.5-98.2
	L368.4,120z"/>
<path class="st3" d="M391,211.4c0-2.7-0.1-5.5-0.2-8.2l0,0c-8.2,1.5-16.1-3.9-17.7-12.1l-0.6-3.2c-2.8-15.3-11.7-28.8-24.3-37
	c-11.7-7.6-34.9-14.1-61.9-7.3c-5.1,1.3-20.5,5.3-20.5,5.3l-4.6,1.2l-25.3-6.5c-14.8-3.7-30.6-1-43.4,7.3
	c-12.6,8.2-21.5,21.7-24.3,37c-6.8,37-27,138.5-32.2,164.8c9.1,8.9,19.1,16.7,29.9,23.4c18.2,4.6,36.3,7.1,53.4,7.1
	C314.1,383.2,391,306.3,391,211.4z"/>
<g>
	<circle class="st8" cx="194.7" cy="229.8" r="18.4"/>
	<circle class="st8" cx="317.3" cy="229.8" r="18.4"/>
</g>
<g>
	<path class="st9" d="M317.4,165.4c6.7,0,13.4,1.1,19.9,3.2c4.8,1.6,7.5,6.8,5.9,11.6s-6.8,7.5-11.6,5.9c-9.3-3-19.1-3-28.4,0
		c-4.8,1.6-10-1.1-11.6-5.9c-1.6-4.8,1.1-10,5.9-11.6C304,166.5,310.7,165.4,317.4,165.4z"/>
	<path class="st9" d="M194.7,165.4c6.7,0,13.4,1.1,19.9,3.2c4.8,1.6,7.5,6.8,5.9,11.6s-6.8,7.5-11.6,5.9c-9.3-3-19.1-3-28.4,0
		c-4.8,1.6-10-1.1-11.6-5.9c-1.6-4.8,1.1-10,5.9-11.6C181.3,166.5,188,165.4,194.7,165.4z"/>
</g>
<path class="st8" d="M269.5,275.8h-27c-5.1,0-9.2-4.1-9.2-9.2s4.1-9.2,9.2-9.2h27c5.1,0,9.2,4.1,9.2,9.2S274.6,275.8,269.5,275.8z"
	/>
<path class="st10" d="M446.1,165.6C444,127,427.9,89.3,400.9,59.4c-27-29.8-64.2-50.7-104.5-58.8c-9.9-2-20.1,0.5-27.9,6.9
	s-12.3,15.8-12.3,25.9l-37,49.1l37,48.4l20.7-5.3c19.8-5,41-1.4,58.1,9.7s28.7,29.1,32.4,49.1c7.9,42.8,33.4,170.7,33.4,170.7
	l33.1,3.4c8.2-19.6,12.6-40.9,12.6-62.7v-10.3l0.2-111.6L446.1,165.6z"/>
<g>
	<path class="st0" d="M243.9,7.6c-7.8-6.4-18-8.9-27.9-6.9c-40.4,8.1-77.5,29-104.5,58.8S68.4,127,66.3,165.6l-0.5,8.4l-0.4,111.6
		v8.9c0,22.4,4.5,44.1,13.1,64.1l33.1-3.4c0,0,25.5-128,33.4-170.7c3.7-20,15.3-38,32.4-49.1s38.2-14.7,57.9-9.7l20.8,5.3V33.5
		C256.2,23.4,251.7,14,243.9,7.6z"/>
	<path class="st9" d="M313.6,98.6l26.8-26.8c11.9-11.9,8.6-32.2-6.7-39.5c-13-6.2-26.8-10.8-41-13.6c-1-0.2-2-0.3-3-0.3
		c-3.6,0-7,1.3-9.8,3.7c-3.4,2.9-5.2,7.3-5.2,11.8v62.9c0,5.9,5.1,10.5,10.9,9.9c3.6-0.4,7.7-0.7,11.5-0.8
		C303.3,105.6,309.2,103,313.6,98.6z"/>
</g>
<path class="st0" d="M235.4,107.4c-19.7-4.9-40.9-1.4-57.9,9.7c-8.5,5.6-15.6,13.4-21,22.3c-7.4,12.2-10.9,26.3-10.9,40.6v2.2
	c4.1-19.1,15.5-36.2,31.9-46.9c17.1-11.1,38.2-14.7,57.9-9.7l20.8,5.3l8.6-9.2l-8.6-9.1L235.4,107.4z"/>
<path class="st7" d="M90.8,180.6c-7.5-3.8-16-6-25-6c-30.5,0-55.2,24.7-55.2,55.2S35.3,285,65.8,285c9.2,0,17.9-2.3,25.5-6.2
	L90.8,180.6z"/>
<path class="st7" d="M446.2,174.6c-9,0-17.5,2.2-25,6l-0.5,98.2c7.6,4,16.3,6.2,25.5,6.2c30.5,0,55.2-24.7,55.2-55.2
	S476.7,174.6,446.2,174.6z"/>
<g>
	<circle class="st3" cx="65.8" cy="229.8" r="18.4"/>
	<circle class="st11" cx="446.2" cy="229.8" r="18.4"/>
</g>
</svg>
