<?xml version="1.0" encoding="utf-8"?>
<!-- Generator: Adobe Illustrator 25.4.1, SVG Export Plug-In . SVG Version: 6.00 Build 0)  -->
<svg version="1.1" id="Layer_1" xmlns="http://www.w3.org/2000/svg" xmlns:xlink="http://www.w3.org/1999/xlink" x="0px" y="0px"
	 viewBox="0 0 32 32" style="enable-background:new 0 0 32 32;" xml:space="preserve">
<style type="text/css">
	.st0{fill:#828282;}
	.st1{fill:none;}
</style>
<path id="credit--card_1_" class="st0" d="M29,26.4H3c-1.3,0-2.4-1.1-2.4-2.4V8c0-1.3,1.1-2.4,2.4-2.4h26c1.3,0,2.4,1.1,2.4,2.4v16
	C31.4,25.3,30.3,26.4,29,26.4z M1.4,13.4V24c0,0.9,0.7,1.6,1.6,1.6h26c0.9,0,1.6-0.7,1.6-1.6V13.4H1.4z M1.4,12.6h29.3v-2.3H1.4
	V12.6z M1.4,9.6h29.3V8c0-0.9-0.7-1.6-1.6-1.6H3C2.1,6.4,1.4,7.1,1.4,8V9.6z"/>
<rect id="_Transparent_Rectangle" class="st1" width="32" height="32"/>
</svg>
