<?xml version="1.0" encoding="utf-8"?>
<!-- Generator: Adobe Illustrator 25.4.1, SVG Export Plug-In . SVG Version: 6.00 Build 0)  -->
<svg version="1.1" id="Layer_1" xmlns="http://www.w3.org/2000/svg" xmlns:xlink="http://www.w3.org/1999/xlink" x="0px" y="0px"
	 viewBox="0 0 291.8 291.8" style="enable-background:new 0 0 291.8 291.8;" xml:space="preserve">
<style type="text/css">
	.st0{fill:#D39060;}
	.st1{fill:#F4B459;}
	.st2{fill:#FAFAFA;}
	.st3{fill:#D07D43;}
</style>
<g>
	<path class="st0" d="M273.5,118.5V63.8c0-10.1-8.2-18.2-18.2-18.2H18.2C8.2,45.6,0,53.8,0,63.8v155c0,10.1,8.2,18.2,18.2,18.2
		h237.1c10.1,0,18.2-8.2,18.2-18.2v-54.7c10.1,0,18.2-8.2,18.2-18.2v-9.1C291.8,126.7,283.6,118.5,273.5,118.5z"/>
	<path class="st1" d="M18.2,72.9l200.6,27.3c10.1,0,18.2,8.2,18.2,18.2v155c0,10.1-8.2,18.2-18.2,18.2L18.2,264.4
		C8.2,264.4,0,256.2,0,246.2V54.7C0,64.8,8.2,72.9,18.2,72.9z"/>
	<path class="st2" d="M196,164.1c7.5,0,13.7,6.1,13.7,13.7s-6.1,13.7-13.7,13.7s-13.7-6.1-13.7-13.7S188.5,164.1,196,164.1z"/>
	<path class="st3" d="M18.2,264.4l200.6,27.4c10.1,0,18.2-8.2,18.2-18.2v-36.5L18.2,209.7C8.2,209.7,0,201.6,0,191.5v54.7
		C0,256.3,8.2,264.4,18.2,264.4z"/>
	<path class="st3" d="M246.2,155c0,0,45.6-9.5,45.6-18.2v27.4c0,0-8.2,18.2-18.2,18.2l-27.4,9.1c-10.1,0-18.2-8.2-18.2-18.2
		C227.9,163.2,236.1,155,246.2,155z"/>
</g>
</svg>
